<svg xmlns="http://www.w3.org/2000/svg" width="381.45" height="50" viewBox="0 0 381.45 50"><path d="M7.64,40.93c-.86,0-1.9.06-2.89.12s-1.9.12-2.66.12c-.31,0-1.11,0-1.11-.61s.45-1,2.28-1.33C4.59,39,6,38.79,6,35.23V6.31c0-1.17-2.58-1-4.18-1.17C.43,5,0,5,0,4.34c0-1,1.66-1,2.4-1H8c1.54,0,3-.13,4.56-.19s3.32-.19,5.29-.19c12.91,0,23.36,6.4,23.36,21.22,0,9.22-8.49,16.79-19.06,16.79Zm3.69-7.69c0,4.31,3.88,6.22,7.87,6.22,4.8,0,16.23-4,16.23-16.48S24.12,4.77,16.5,4.77c-5,0-5.17,1.11-5.17,2Z" fill="#292f62"/><path d="M46.41,33.39c0-3.75.12-9.47.12-13.11,0-.86-1.05-1-1.77-1.16-1.48-.37-1.85-.5-1.85-.93s.67-.55,1.54-.55,1.72.12,2.66.12,1.78-.12,2.71-.12.92.3.92,1.16c0,5.48-.12,11-.12,16.44,0,2.52,1.85,3.94,4.86,3.94,6.83,0,7.32-2.9,7.39-5.42,0-4.37.12-8.8.12-13.17,0-.74-.31-.74-3.2-1.48-.49-.13-1.78-.5-1.78-1s.68-.49,1.34-.49c1,0,2.09.12,3.14.12,1.23,0,2.39-.12,3.63-.12a1.2,1.2,0,0,1,1.29,1.11v.18c0,6.22-.24,12.44-.24,18.65a1.42,1.42,0,0,0,1.59,1.48c2.4,0,3.21,0,3.21.62s-.31.62-1.23.74c-4.31.67-6.83,1.23-7.39,1.23s-.49-.45-.49-1V39.24c0-.49-.13-.74-.45-.74-1,0-3.63,3.63-8.61,3.63C48,42.13,46.41,38.63,46.41,33.39Z" fill="#292f62"/><path d="M77.18,6c0-3.26-3-2.22-3-3.38,0-.45.44-.56,1.29-.87L79.64.13a2.8,2.8,0,0,1,1-.12c.31,0,.68.18.68,1.1V26.39c0,.68.12,1,.55,1,.61,0,10-5.54,10-6.67,0-1.59-2.33-1.59-2.33-2.52,0-.3.49-.61.86-.61,1.29,0,3.13.12,4.73.12s3.39-.12,4.62-.12c.55,0,1.17.12,1.17.74s-2.16,1.1-3,1.47c-1.78.8-11.87,6.66-11.87,7.32a1.19,1.19,0,0,0,.49.86l10.66,9.66c2.52,2.27,4.86,2.09,4.86,2.95,0,.31-.61.61-1.6.61-1.29,0-2.89-.24-4.73-.24-1.6,0-3.08.24-4.56.24-1.29,0-1.84-.06-1.84-.61s.74-.74,1.78-.86c.61-.06,1.17-.45,1.17-.86s-.31-.62-.68-1l-9.29-8.78a1.2,1.2,0,0,0-.55-.36c-.25,0-.45.06-.45.3v8.74a1.88,1.88,0,0,0,1.34,2c1,.3,1.77.3,1.77.86s-.8.61-1.41.61c-1.47,0-2.77-.24-4.12-.24s-3.38.24-4.44.24c-.37,0-1.48-.06-1.48-.61s.5-.68,1.11-.86c1.72-.5,3-.31,3-2.9Z" fill="#292f62"/><path d="M106.17,26.7a9.67,9.67,0,0,0-.12,2.15c0,5.17,1.41,10.29,8.93,10.29,4.74,0,4.88-2.46,5.85-2.46a.5.5,0,0,1,.55.45v0c0,.44-2.59,4.93-9,4.93-6.78,0-10.66-4.81-10.66-12.51,0-5.77,3.55-13,11.21-13a9.22,9.22,0,0,1,9.49,8.69c0,1.11-.19,1.42-1.23,1.42Zm12.2-4.89c0-2.09-2-3.76-4.56-3.76-4.44,0-7.1,4.32-7.1,6.22,0,.45.12.56,5.36.56,5.44,0,6.3-.78,6.3-3Z" fill="#292f62"/><rect x="135.89" width="0.55" height="42.13" fill="#292f62"/><path d="M174.76,41.66h-5L157.6,21.91h-.14l.09,1.1c.15,2.1.23,4,.23,5.76V41.66H154.1V16.87H159l12.16,19.65h.1c0-.26-.07-1.2-.14-2.84s-.1-2.91-.1-3.82v-13h3.72Z" fill="#292f62"/><path d="M192.81,41.66H183V24.31h9.81V26.7h-7v4.73h6.54V33.8h-6.54v5.45h7Z" fill="#292f62"/><path d="M211.63,24.31V35.54a6.64,6.64,0,0,1-.82,3.36,5.53,5.53,0,0,1-2.39,2.22,8.25,8.25,0,0,1-3.73.78,7,7,0,0,1-5-1.71,6.17,6.17,0,0,1-1.79-4.7V24.31h2.84v11a4.39,4.39,0,0,0,1,3.16,4.13,4.13,0,0,0,3.06,1q4,0,4-4.22V24.31Z" fill="#292f62"/><path d="M220.54,34.73v6.93h-2.83V24.31h4.9a8,8,0,0,1,5,1.26,4.49,4.49,0,0,1,1.62,3.79c0,2.16-1.13,3.7-3.37,4.62l4.9,7.68H227.5l-4.15-6.93Zm0-2.35h2a4.52,4.52,0,0,0,2.88-.74,2.68,2.68,0,0,0,.89-2.18,2.34,2.34,0,0,0-1-2.11,5.25,5.25,0,0,0-2.9-.65h-1.88Z" fill="#292f62"/><path d="M250.13,33A9.48,9.48,0,0,1,248,39.55a8.89,8.89,0,0,1-12,0,9.55,9.55,0,0,1-2.11-6.62q0-4.3,2.12-6.6A7.79,7.79,0,0,1,242,24a7.64,7.64,0,0,1,6,2.34A9.49,9.49,0,0,1,250.13,33Zm-13.24,0a7.78,7.78,0,0,0,1.29,4.86,5.26,5.26,0,0,0,7.65,0A7.81,7.81,0,0,0,247.12,33a7.8,7.8,0,0,0-1.28-4.84,4.51,4.51,0,0,0-3.8-1.65,4.6,4.6,0,0,0-3.85,1.65A7.67,7.67,0,0,0,236.89,33Z" fill="#292f62"/><path d="M261.91,41.66h-4.06V20.35h-7.29V16.87H269.2v3.48h-7.29Z" fill="#292f62"/><path d="M287.66,33a9.53,9.53,0,0,1-2.12,6.59,8.89,8.89,0,0,1-12,0q-2.11-2.33-2.11-6.62t2.12-6.6a7.79,7.79,0,0,1,6-2.31,7.66,7.66,0,0,1,6,2.34A9.49,9.49,0,0,1,287.66,33Zm-13.25,0a7.78,7.78,0,0,0,1.3,4.86,5.26,5.26,0,0,0,7.65,0A7.81,7.81,0,0,0,284.64,33a7.81,7.81,0,0,0-1.27-4.84,4.52,4.52,0,0,0-3.81-1.65,4.61,4.61,0,0,0-3.85,1.65A7.74,7.74,0,0,0,274.41,33Z" fill="#292f62"/><path d="M308.5,33a9.48,9.48,0,0,1-2.12,6.59,8.89,8.89,0,0,1-12,0,9.55,9.55,0,0,1-2.11-6.62q0-4.3,2.12-6.6A7.79,7.79,0,0,1,300.41,24a7.64,7.64,0,0,1,6,2.34A9.49,9.49,0,0,1,308.5,33Zm-13.24,0a7.78,7.78,0,0,0,1.29,4.86,5.26,5.26,0,0,0,7.65,0A7.81,7.81,0,0,0,305.49,33a7.8,7.8,0,0,0-1.28-4.84,4.51,4.51,0,0,0-3.8-1.65,4.6,4.6,0,0,0-3.85,1.65A7.67,7.67,0,0,0,295.26,33Z" fill="#292f62"/><path d="M313.88,41.66V24.31h2.84V39.23h7.34v2.43Z" fill="#292f62"/><path d="M328.71,24.31h5.15a9.85,9.85,0,0,1,5.18,1,3.67,3.67,0,0,1,1.59,3.3,4,4,0,0,1-.78,2.53,3.48,3.48,0,0,1-2.25,1.27v.12a4.45,4.45,0,0,1,2.68,1.36,4.05,4.05,0,0,1,.86,2.74,4.47,4.47,0,0,1-1.63,3.67A7,7,0,0,1,335,41.66h-6.26Zm2.83,7.17h2.73a4.64,4.64,0,0,0,2.6-.57,2.14,2.14,0,0,0,.82-1.92,1.91,1.91,0,0,0-.89-1.76,5.41,5.41,0,0,0-2.8-.55h-2.46Zm0,2.3v5.49h3a4.38,4.38,0,0,0,2.68-.68,2.5,2.5,0,0,0,.91-2.15,2.32,2.32,0,0,0-.92-2,5,5,0,0,0-2.82-.65Z" fill="#292f62"/><path d="M361.85,33a9.53,9.53,0,0,1-2.12,6.59,8.89,8.89,0,0,1-12,0q-2.11-2.33-2.11-6.62t2.12-6.6A7.79,7.79,0,0,1,353.76,24a7.64,7.64,0,0,1,6,2.34A9.49,9.49,0,0,1,361.85,33Zm-13.24,0a7.78,7.78,0,0,0,1.29,4.86,5.26,5.26,0,0,0,7.65,0A7.81,7.81,0,0,0,358.84,33a7.8,7.8,0,0,0-1.28-4.84,4.51,4.51,0,0,0-3.8-1.65,4.62,4.62,0,0,0-3.86,1.65A7.74,7.74,0,0,0,348.61,33Z" fill="#292f62"/><path d="M379.58,41.66h-3.26L372,34.56l-4.38,7.1h-3l5.76-9-5.39-8.35h3.16l4,6.56,4-6.56h3.06l-5.42,8.4Z" fill="#292f62"/></svg>